<?xml version="1.0" encoding="UTF-8" standalone="no"?>
<!-- Created with Inkscape (http://www.inkscape.org/) -->

<svg
   xmlns:dc="http://purl.org/dc/elements/1.1/"
   xmlns:cc="http://creativecommons.org/ns#"
   xmlns:rdf="http://www.w3.org/1999/02/22-rdf-syntax-ns#"
   xmlns:svg="http://www.w3.org/2000/svg"
   xmlns="http://www.w3.org/2000/svg"
   xmlns:sodipodi="http://sodipodi.sourceforge.net/DTD/sodipodi-0.dtd"
   xmlns:inkscape="http://www.inkscape.org/namespaces/inkscape"
   width="128"
   height="128"
   id="svg2"
   version="1.1"
   inkscape:version="0.48.5 r10040"
   sodipodi:docname="filefinder.svg">
  <defs
     id="defs4" />
  <sodipodi:namedview
     id="base"
     pagecolor="#ffffff"
     bordercolor="#666666"
     borderopacity="1.0"
     inkscape:pageopacity="0.0"
     inkscape:pageshadow="2"
     inkscape:zoom="2.8"
     inkscape:cx="65.21421"
     inkscape:cy="20.506449"
     inkscape:document-units="px"
     inkscape:current-layer="layer1"
     showgrid="false"
     inkscape:window-width="960"
     inkscape:window-height="1173"
     inkscape:window-x="0"
     inkscape:window-y="27"
     inkscape:window-maximized="0" />
  <metadata
     id="metadata7">
    <rdf:RDF>
      <cc:Work
         rdf:about="">
        <dc:format>image/svg+xml</dc:format>
        <dc:type
           rdf:resource="http://purl.org/dc/dcmitype/StillImage" />
        <dc:title />
      </cc:Work>
    </rdf:RDF>
  </metadata>
  <g
     inkscape:label="Layer 1"
     inkscape:groupmode="layer"
     id="layer1"
     transform="translate(0,-924.36218)">
    <path
       style="fill:#16aaf8;fill-opacity:1;fill-rule:evenodd;stroke:none"
       d="m 32,932.36219 c -13.296,0 -24,10.704 -24,24 l 0,64.00001 c 0,13.296 10.704,24 24,24 l 64,0 c 13.296,0 24,-10.704 24,-24 l 0,-64.00001 c 0,-13.296 -10.704,-24 -24,-24 l -64,0 z m 36,16 c 19.88225,0 36,16.11775 36,36 0,19.88231 -16.11775,36.00001 -36,36.00001 -6.313,0 -12.24776,-1.6142 -17.40625,-4.4687 L 36.5,1029.9872 c -3.1339,3.1339 -8.1786,3.1339 -11.3125,0 l -2.84375,-2.8125 c -3.1339,-3.1339 -3.1339,-8.1786 0,-11.3125 l 14.125,-14.125 C 33.62239,996.58422 32,990.66553 32,984.36219 c 0,-19.88225 16.11775,-36 36,-36 z"
       id="rect2985-1"
       inkscape:connector-curvature="0" />
  </g>
</svg>
